<?xml version="1.0" encoding="UTF-8" standalone="no"?>
<!-- Created with Inkscape (http://www.inkscape.org/) -->

<svg
   width="100"
   height="100"
   viewBox="0 0 26.458333 26.458333"
   version="1.1"
   id="svg5"
   xmlns="http://www.w3.org/2000/svg"
   xmlns:svg="http://www.w3.org/2000/svg">
  <defs
     id="defs2" />
  <g
     id="layer1">
    <path
       id="path373-7"
       style="fill:#ffffff;fill-opacity:1;stroke:none;stroke-width:4.40972;stroke-linejoin:round"
       d="M 13.229166,0 C 5.922907,0 0,5.9229069 0,13.229167 c 0,7.30626 5.922907,13.229167 13.229166,13.229167 v -5.291667 c -4.383755,0 -7.9375,-3.553744 -7.9375,-7.9375 0,-4.3837563 3.553745,-7.9375003 7.9375,-7.9375003 z" />
    <path
       id="path373-3-6-3"
       style="fill:#ffffff;fill-opacity:1;stroke:none;stroke-width:1.32292;stroke-linejoin:round"
       d="m 13.229166,13.229167 c 0,2.191879 0,3.968749 0,3.968749 -2.191881,0 -3.968751,-1.77687 -3.968751,-3.968749 0,-2.191881 1.77687,-3.9687513 3.968751,-3.9687513 0,0 0,1.7768703 0,3.9687513 z" />
    <path
       style="fill:#ffffff;fill-opacity:1;stroke:none;stroke-width:0.264583px;stroke-linecap:butt;stroke-linejoin:miter;stroke-opacity:1"
       d="M 26.458332,0 H 13.229166 v 26.458333 l 5.291667,1e-6 V 15.875 h 5.291666 V 10.583334 H 18.520833 V 5.2916667 h 7.9375 z"
       id="path115-5" />
  </g>
</svg>
